<?xml version="1.0" encoding="utf-8"?>
<!-- Generator: Adobe Illustrator 25.2.0, SVG Export Plug-In . SVG Version: 6.00 Build 0)  -->
<svg version="1.1" id="Capa_1" xmlns="http://www.w3.org/2000/svg" xmlns:xlink="http://www.w3.org/1999/xlink" x="0px" y="0px"
	 viewBox="0 0 512 512" style="enable-background:new 0 0 512 512;" xml:space="preserve">
<style type="text/css">
	.st0{fill:#F2F9FF;}
	.st1{fill:#E2F4FF;}
	.st2{fill:#AFE2F7;}
	.st3{fill:#B5E245;}
	.st4{fill:#D1ECF9;}
	.st5{fill:#4A80AA;}
	.st6{fill:#407093;}
	.st7{fill:#A8D340;}
	.st8{fill:#E4936B;}
	.st9{fill:#DD6938;}
	.st10{fill:#C6E873;}
</style>
<g>
	<g>
		<g>
			<g>
				<g>
					<g>
						<g>
							<g>
								<g>
									<g>
										<g>
											<path class="st0" d="M419.5,194.8c0-3.4-1.7-6.6-4.6-8.5L212.9,56.6L33.1,172.5v310.4h386.3V194.8z"/>
											<path class="st1" d="M256,28.8l-49.6,32l200.6,129.3c2.9,1.9,4.6,5,4.6,8.5v284.3h67.3V172.5L256,28.8z"/>
											<path class="st2" d="M0,184.3c0,16.4,18.2,26.3,31.9,17.4L249.4,61.5c4-2.6,9.1-2.6,13.1,0l217.5,140.3
												c13.8,8.9,31.9-1,31.9-17.4c0-7-3.6-13.6-9.5-17.4l-240-154.7c-4-2.6-9.1-2.6-13.1,0L9.5,166.9
												C3.6,170.7,0,177.3,0,184.3L0,184.3z"/>
										</g>
									</g>
								</g>
							</g>
							<g>
								<g>
									<g>
										<g>
											<path class="st3" d="M176.6,369.4c0.1-0.8-0.6-1.4-1.4-1.1c-2.8,1.2-10,4-27.4,3c-27.8-1.6-25.6,34.2-25.6,34.2
												S166,426.8,176.6,369.4L176.6,369.4z"/>
										</g>
									</g>
									<g>
										<g>
											<path class="st3" d="M311.8,369.4c0.1-0.8-0.6-1.4-1.4-1.1c-2.8,1.2-10,4-27.4,3c-27.8-1.6-25.6,34.2-25.6,34.2
												S301.3,426.8,311.8,369.4L311.8,369.4z"/>
										</g>
									</g>
									<g>
										<g>
											<path class="st3" d="M447.1,369.4c0.1-0.8-0.6-1.4-1.4-1.1c-2.8,1.2-10,4-27.4,3c-27.8-1.6-25.6,34.2-25.6,34.2
												S436.6,426.8,447.1,369.4L447.1,369.4z"/>
										</g>
									</g>
								</g>
							</g>
						</g>
					</g>
					<g>
						<g>
							<g>
								<g>
									<path class="st4" d="M169.2,226.1c-1.6,0-3.3-0.5-4.7-1.6c-3.4-2.6-4.1-7.4-1.5-10.8l7.6-10.1c2.6-3.4,7.4-4.1,10.8-1.5
										c3.4,2.6,4.1,7.4,1.5,10.8l-7.6,10.1C173.8,225.1,171.5,226.1,169.2,226.1z"/>
								</g>
								<g>
									<path class="st4" d="M212.6,226.1c-0.9,0-1.8-0.2-2.7-0.5c-4-1.5-6-6-4.5-10l3.8-10.1c1.5-4,6-6,10-4.5c4,1.5,6,6,4.5,10
										l-3.8,10.1C218.7,224.2,215.7,226.1,212.6,226.1z"/>
								</g>
								<g>
									<path class="st4" d="M256,226.1c-4.3,0-7.7-3.5-7.7-7.7v-10.1c0-4.3,3.5-7.7,7.7-7.7c4.3,0,7.7,3.5,7.7,7.7v10.1
										C263.7,222.7,260.3,226.1,256,226.1z"/>
								</g>
								<g>
									<path class="st4" d="M299.4,226.1c-3.1,0-6.1-1.9-7.2-5l-3.8-10.1c-1.5-4,0.5-8.4,4.5-10c4-1.5,8.5,0.5,10,4.5l3.8,10.1
										c1.5,4-0.5,8.4-4.5,10C301.2,226,300.3,226.1,299.4,226.1z"/>
								</g>
								<g>
									<path class="st4" d="M342.8,226.1c-2.3,0-4.6-1.1-6.2-3.1L329,213c-2.6-3.4-1.9-8.2,1.5-10.8c3.4-2.6,8.2-1.9,10.8,1.5
										l7.6,10.1c2.6,3.4,1.9,8.2-1.5,10.8C346.1,225.6,344.4,226.1,342.8,226.1z"/>
								</g>
							</g>
							<g>
								<g>
									<g>
										<path class="st4" d="M131.6,286.4c-1.6,0-3.2-0.5-4.5-1.5c-3.5-2.5-4.2-7.3-1.7-10.8l9.5-13.1c2.5-3.5,7.3-4.2,10.8-1.7
											s4.2,7.3,1.7,10.8l-9.5,13.1C136.4,285.3,134,286.4,131.6,286.4L131.6,286.4z"/>
									</g>
									<g>
										<path class="st4" d="M193.8,286.4c-0.9,0-1.8-0.1-2.6-0.5c-4-1.5-6.1-5.9-4.6-9.9l4.7-13.1c1.5-4,5.9-6.1,9.9-4.6
											c4,1.5,6.1,5.9,4.6,9.9l-4.7,13.1C199.9,284.4,197,286.4,193.8,286.4z"/>
									</g>
									<g>
										<path class="st4" d="M256,286.4c-4.3,0-7.7-3.5-7.7-7.7v-13.1c0-4.3,3.5-7.7,7.7-7.7c4.3,0,7.7,3.5,7.7,7.7v13.1
											C263.7,282.9,260.3,286.4,256,286.4z"/>
									</g>
									<g>
										<path class="st4" d="M318.2,286.4c-3.2,0-6.1-2-7.3-5.1l-4.7-13.1c-1.5-4,0.6-8.4,4.6-9.9c4-1.5,8.4,0.6,9.9,4.6l4.7,13.1
											c1.5,4-0.6,8.4-4.6,9.9C319.9,286.2,319.1,286.4,318.2,286.4z"/>
									</g>
									<g>
										<path class="st4" d="M380.4,286.4c-2.4,0-4.8-1.1-6.3-3.2l-9.5-13.1c-2.5-3.5-1.7-8.3,1.7-10.8c3.5-2.5,8.3-1.7,10.8,1.7
											l9.5,13.1c2.5,3.5,1.7,8.3-1.7,10.8C383.5,285.9,381.9,286.4,380.4,286.4L380.4,286.4z"/>
									</g>
								</g>
							</g>
						</g>
					</g>
				</g>
			</g>
		</g>
		<path class="st5" d="M262.5,61.5c-4-2.6-9.1-2.6-13.1,0l-1.2,0.8v50.4c0,4.3,3.5,7.7,7.7,7.7c4.3,0,7.7-3.5,7.7-7.7V62.2
			L262.5,61.5z"/>
		<g>
			<path class="st6" d="M275.2,142.1h-38.3v-17.8c0-10.6,8.6-19.2,19.2-19.2s19.2,8.6,19.2,19.2V142.1z"/>
			<path class="st5" d="M282,164.5H230c-7.8,0-14.2-6.4-14.2-14.2c0-7.8,6.4-14.2,14.2-14.2H282c7.8,0,14.2,6.4,14.2,14.2
				C296.2,158.1,289.8,164.5,282,164.5z"/>
		</g>
		<g>
			<g>
				<path class="st7" d="M122.1,478.4c-4.3,0-7.7-3.5-7.7-7.7V364.4c0-4.3,3.5-7.7,7.7-7.7s7.7,3.5,7.7,7.7v106.3
					C129.9,474.9,126.4,478.4,122.1,478.4z"/>
			</g>
			<g>
				<path class="st7" d="M257.4,478.4c-4.3,0-7.7-3.5-7.7-7.7V364.4c0-4.3,3.5-7.7,7.7-7.7c4.3,0,7.7,3.5,7.7,7.7v106.3
					C265.2,474.9,261.7,478.4,257.4,478.4z"/>
			</g>
			<g>
				<path class="st7" d="M392.7,478.4c-4.3,0-7.7-3.5-7.7-7.7V364.4c0-4.3,3.5-7.7,7.7-7.7s7.7,3.5,7.7,7.7v106.3
					C400.4,474.9,397,478.4,392.7,478.4z"/>
			</g>
		</g>
		<g>
			<path class="st8" d="M431.5,501.7c10.3,0,18.7-8.4,18.7-18.7v-15.3l-5-3.3H18.7C8.4,464.4,0,472.7,0,483.1s8.4,18.7,18.7,18.7
				H431.5z"/>
			<path class="st9" d="M493.3,464.4h-48.1v18.7c0,10.3-8.4,18.7-18.7,18.7h66.8c10.3,0,18.7-8.4,18.7-18.7
				C512,472.7,503.6,464.4,493.3,464.4L493.3,464.4z"/>
		</g>
	</g>
	<g>
		<path class="st10" d="M72.7,335.2c-0.2-0.8,0.5-1.5,1.2-1.3c3,0.8,10.3,1.8,27.6-0.3c33.5-4.1,28.4,30.9,28.4,30.9
			S90.2,390.8,72.7,335.2L72.7,335.2z"/>
		<path class="st10" d="M207.9,335.2c-0.2-0.8,0.5-1.5,1.2-1.3c3,0.8,10.3,1.8,27.6-0.3c33.5-4.1,28.4,30.9,28.4,30.9
			S225.3,390.8,207.9,335.2L207.9,335.2z"/>
		<path class="st10" d="M343.2,335.2c-0.2-0.8,0.5-1.5,1.2-1.3c3,0.8,10.3,1.8,27.6-0.3c33.5-4.1,28.4,30.9,28.4,30.9
			S360.6,390.8,343.2,335.2L343.2,335.2z"/>
	</g>
</g>
</svg>
