<?xml version="1.0" encoding="utf-8"?>
<!-- Generator: Adobe Illustrator 25.2.0, SVG Export Plug-In . SVG Version: 6.00 Build 0)  -->
<svg version="1.1" id="Capa_1" xmlns="http://www.w3.org/2000/svg" xmlns:xlink="http://www.w3.org/1999/xlink" x="0px" y="0px"
	 viewBox="0 0 512 512" style="enable-background:new 0 0 512 512;" xml:space="preserve">
<style type="text/css">
	.st0{fill:#F2F9FF;}
	.st1{fill:#E2F4FF;}
	.st2{fill:#AFE2F7;}
	.st3{fill:#D1ECF9;}
	.st4{fill:#E4936B;}
	.st5{fill:#DD6938;}
	.st6{fill:#BBDDEA;}
</style>
<g>
	<g>
		<g>
			<g>
				<path class="st0" d="M419.5,194.8c0-3.4-1.7-6.6-4.6-8.5L212.9,56.6L33.1,172.5v310.4h386.3V194.8z"/>
				<path class="st1" d="M256,28.8l-49.6,32l200.6,129.3c2.9,1.9,4.6,5,4.6,8.5v284.3h67.3V172.5L256,28.8z"/>
				<path class="st2" d="M0,184.3c0,16.4,18.2,26.3,31.9,17.4L249.4,61.5c4-2.6,9.1-2.6,13.1,0l217.5,140.3
					c13.8,8.9,31.9-1,31.9-17.4c0-7-3.6-13.6-9.5-17.4l-240-154.7c-4-2.6-9.1-2.6-13.1,0L9.5,166.9C3.6,170.7,0,177.3,0,184.3
					L0,184.3z"/>
			</g>
		</g>
	</g>
</g>
<g>
	<path class="st3" d="M611.9,223.2c-1.6,0-3.3-0.5-4.7-1.6c-3.4-2.6-4.1-7.4-1.5-10.8l7.6-10.1c2.6-3.4,7.4-4.1,10.8-1.5
		c3.4,2.6,4.1,7.4,1.5,10.8l-7.6,10.1C616.5,222.2,614.2,223.2,611.9,223.2z"/>
</g>
<g>
	<path class="st3" d="M655.3,223.2c-0.9,0-1.8-0.2-2.7-0.5c-4-1.5-6-6-4.5-10l3.8-10.1c1.5-4,6-6,10-4.5c4,1.5,6,6,4.5,10l-3.8,10.1
		C661.3,221.3,658.4,223.2,655.3,223.2z"/>
</g>
<g>
	<path class="st3" d="M742.1,223.2c-3.1,0-6.1-1.9-7.2-5l-3.8-10.1c-1.5-4,0.5-8.4,4.5-10c4-1.5,8.5,0.5,10,4.5l3.8,10.1
		c1.5,4-0.5,8.4-4.5,10C743.9,223.1,743,223.2,742.1,223.2z"/>
</g>
<g>
	<path class="st3" d="M785.5,223.2c-2.3,0-4.6-1.1-6.2-3.1l-7.6-10.1c-2.6-3.4-1.9-8.2,1.5-10.8c3.4-2.6,8.2-1.9,10.8,1.5l7.6,10.1
		c2.6,3.4,1.9,8.2-1.5,10.8C788.7,222.7,787.1,223.2,785.5,223.2z"/>
</g>
<g>
	<path class="st3" d="M574.3,283.5c-1.6,0-3.2-0.5-4.5-1.5c-3.5-2.5-4.2-7.3-1.7-10.8l9.5-13.1c2.5-3.5,7.3-4.2,10.8-1.7
		c3.5,2.5,4.2,7.3,1.7,10.8l-9.5,13.1C579.1,282.4,576.7,283.5,574.3,283.5L574.3,283.5z"/>
</g>
<g>
	<path class="st3" d="M636.5,283.5c-0.9,0-1.8-0.1-2.6-0.5c-4-1.5-6.1-5.9-4.6-9.9L634,260c1.5-4,5.9-6.1,9.9-4.6
		c4,1.5,6.1,5.9,4.6,9.9l-4.7,13.1C642.6,281.5,639.6,283.5,636.5,283.5z"/>
</g>
<g>
	<path class="st3" d="M760.9,283.5c-3.2,0-6.1-2-7.3-5.1l-4.7-13.1c-1.5-4,0.6-8.4,4.6-9.9c4-1.5,8.4,0.6,9.9,4.6l4.7,13.1
		c1.5,4-0.6,8.4-4.6,9.9C762.6,283.4,761.7,283.5,760.9,283.5z"/>
</g>
<g>
	<path class="st3" d="M823,283.5c-2.4,0-4.8-1.1-6.3-3.2l-9.5-13.1c-2.5-3.5-1.7-8.3,1.7-10.8c3.5-2.5,8.3-1.7,10.8,1.7l9.5,13.1
		c2.5,3.5,1.7,8.3-1.7,10.8C826.2,283,824.6,283.5,823,283.5L823,283.5z"/>
</g>
<g>
	<path class="st4" d="M431.5,501.7c10.3,0,18.7-8.4,18.7-18.7v-15.3l-5-3.3H18.7C8.4,464.4,0,472.7,0,483.1s8.4,18.7,18.7,18.7
		H431.5z"/>
	<path class="st5" d="M493.3,464.4h-48.1v18.7c0,10.3-8.4,18.7-18.7,18.7h66.8c10.3,0,18.7-8.4,18.7-18.7
		C512,472.7,503.6,464.4,493.3,464.4L493.3,464.4z"/>
</g>
<g>
	<path class="st3" d="M-561.8,207.4c-1,1.6-1.4,3.6-1,5.4c0.4,1.9,1.5,3.5,3.2,4.5c1.2,0.7,2.5,1.1,3.9,1.1c0.5,0,1.1-0.1,1.6-0.2
		c1.9-0.4,3.5-1.5,4.5-3.2c0.6-1,1.2-2.4,1.3-5.5l0.1-10.2l-9.2,4.5C-560.2,205.3-561.2,206.4-561.8,207.4z"/>
	<path class="st3" d="M-531.2,207.4c-1,1.6-1.4,3.6-1,5.4c0.4,1.9,1.5,3.5,3.2,4.5c1.2,0.7,2.5,1.1,3.9,1.1c0.5,0,1.1-0.1,1.6-0.2
		c1.9-0.4,3.5-1.5,4.5-3.2c0.6-1,1.2-2.4,1.3-5.5l0.1-10.2l-9.2,4.5C-529.5,205.3-530.6,206.4-531.2,207.4z"/>
	<path class="st3" d="M-545.8,237.3c-1,1.6-1.4,3.6-1,5.4c0.4,1.9,1.5,3.5,3.2,4.5c1.2,0.7,2.5,1.1,3.9,1.1c0.5,0,1.1-0.1,1.6-0.2
		c1.9-0.4,3.5-1.5,4.5-3.2c0.6-1,1.2-2.4,1.3-5.5l0.1-10.2l-9.2,4.5C-544.2,235.2-545.2,236.4-545.8,237.3z"/>
	<path class="st3" d="M-500.6,207.4c-1,1.6-1.4,3.6-1,5.4c0.4,1.9,1.5,3.5,3.2,4.5c1.2,0.7,2.5,1.1,3.9,1.1c0.5,0,1.1-0.1,1.6-0.2
		c1.9-0.4,3.5-1.5,4.5-3.2c0.6-1,1.2-2.4,1.3-5.5l0.1-10.2l-9.2,4.5C-498.9,205.3-499.9,206.4-500.6,207.4z"/>
	<path class="st3" d="M-469.9,207.4c-1,1.6-1.4,3.6-1,5.4c0.4,1.9,1.5,3.5,3.2,4.5c1.2,0.7,2.5,1.1,3.9,1.1c0.5,0,1.1-0.1,1.6-0.2
		c1.9-0.4,3.5-1.5,4.5-3.2c0.6-1,1.2-2.4,1.3-5.5l0.1-10.2l-9.2,4.5C-468.3,205.3-469.3,206.4-469.9,207.4z"/>
	<path class="st3" d="M-484.5,237.3c-1,1.6-1.4,3.6-1,5.4c0.4,1.9,1.5,3.5,3.2,4.5c1.2,0.7,2.5,1.1,3.9,1.1c0.5,0,1.1-0.1,1.6-0.2
		c1.9-0.4,3.5-1.5,4.5-3.2c0.6-1,1.2-2.4,1.3-5.5l0.1-10.2l-9.2,4.5C-482.9,235.2-483.9,236.4-484.5,237.3z"/>
	<path class="st3" d="M-439.3,207.4c-1,1.6-1.4,3.6-1,5.4c0.4,1.9,1.5,3.5,3.2,4.5c1.2,0.7,2.5,1.1,3.9,1.1c0.5,0,1.1-0.1,1.6-0.2
		c1.9-0.4,3.5-1.5,4.5-3.2c0.6-1,1.2-2.4,1.3-5.5l0.1-10.2l-9.2,4.5C-437.7,205.3-438.7,206.4-439.3,207.4z"/>
	<path class="st3" d="M-408.7,207.4c-1,1.6-1.4,3.6-1,5.4c0.4,1.9,1.5,3.5,3.2,4.5c1.2,0.7,2.5,1.1,3.9,1.1c0.5,0,1.1-0.1,1.6-0.2
		c1.9-0.4,3.5-1.5,4.5-3.2c0.6-1,1.2-2.4,1.3-5.5l0.1-10.2l-9.2,4.5C-407.1,205.3-408.1,206.4-408.7,207.4z"/>
	<path class="st3" d="M-423.3,237.3c-1,1.6-1.4,3.6-1,5.4c0.4,1.9,1.5,3.5,3.2,4.5c1.2,0.7,2.5,1.1,3.9,1.1c0.5,0,1.1-0.1,1.6-0.2
		c1.9-0.4,3.5-1.5,4.5-3.2c0.6-1,1.2-2.4,1.3-5.5l0.1-10.2l-9.2,4.5C-421.7,235.2-422.7,236.4-423.3,237.3z"/>
	<path class="st3" d="M-378.1,207.4c-1,1.6-1.4,3.6-1,5.4c0.4,1.9,1.5,3.5,3.2,4.5c1.2,0.7,2.5,1.1,3.9,1.1c0.5,0,1.1-0.1,1.6-0.2
		c1.9-0.4,3.5-1.5,4.5-3.2c0.6-1,1.2-2.4,1.3-5.5l0.1-10.2l-9.2,4.5C-376.5,205.3-377.5,206.4-378.1,207.4z"/>
	<path class="st3" d="M-347.5,207.4c-1,1.6-1.4,3.6-1,5.4c0.4,1.9,1.5,3.5,3.2,4.5c1.2,0.7,2.5,1.1,3.9,1.1c0.5,0,1.1-0.1,1.6-0.2
		c1.9-0.4,3.5-1.5,4.5-3.2c0.6-1,1.2-2.4,1.3-5.5l0.1-10.2l-9.2,4.5C-345.9,205.3-346.9,206.4-347.5,207.4z"/>
	<path class="st3" d="M-362.1,237.3c-1,1.6-1.4,3.6-1,5.4c0.4,1.9,1.5,3.5,3.2,4.5c1.2,0.7,2.5,1.1,3.9,1.1c0.5,0,1.1-0.1,1.6-0.2
		c1.9-0.4,3.5-1.5,4.5-3.2c0.6-1,1.2-2.4,1.3-5.5l0.1-10.2l-9.2,4.5C-360.5,235.2-361.5,236.4-362.1,237.3z"/>
	<path class="st3" d="M-316.9,207.4c-1,1.6-1.4,3.6-1,5.4c0.4,1.9,1.5,3.5,3.2,4.5c1.2,0.7,2.5,1.1,3.9,1.1c0.5,0,1.1-0.1,1.6-0.2
		c1.9-0.4,3.5-1.5,4.5-3.2c0.6-1,1.2-2.4,1.3-5.5l0.1-10.2l-9.2,4.5C-315.3,205.3-316.3,206.4-316.9,207.4z"/>
	<path class="st3" d="M-286.3,207.4c-1,1.6-1.4,3.6-1,5.4c0.4,1.9,1.5,3.5,3.2,4.5c1.2,0.7,2.5,1.1,3.9,1.1c0.5,0,1.1-0.1,1.6-0.2
		c1.9-0.4,3.5-1.5,4.5-3.2c0.6-1,1.2-2.4,1.3-5.5l0.1-10.2l-9.2,4.5C-284.7,205.3-285.7,206.4-286.3,207.4z"/>
	<path class="st3" d="M-300.9,237.3c-1,1.6-1.4,3.6-1,5.4c0.4,1.9,1.5,3.5,3.2,4.5c1.2,0.7,2.5,1.1,3.9,1.1c0.5,0,1.1-0.1,1.6-0.2
		c1.9-0.4,3.5-1.5,4.5-3.2c0.6-1,1.2-2.4,1.3-5.5l0.1-10.2l-9.2,4.5C-299.3,235.2-300.3,236.4-300.9,237.3z"/>
	<path class="st3" d="M-592.4,269c-1,1.6-1.4,3.6-1,5.4c0.4,1.9,1.5,3.5,3.2,4.5c1.2,0.7,2.5,1.1,3.9,1.1c0.5,0,1.1-0.1,1.6-0.2
		c1.9-0.4,3.5-1.5,4.5-3.2c0.6-1,1.2-2.4,1.3-5.5l0.1-10.2l-9.2,4.5C-590.8,266.9-591.8,268-592.4,269z"/>
	<path class="st3" d="M-561.8,269c-1,1.6-1.4,3.6-1,5.4c0.4,1.9,1.5,3.5,3.2,4.5c1.2,0.7,2.5,1.1,3.9,1.1c0.5,0,1.1-0.1,1.6-0.2
		c1.9-0.4,3.5-1.5,4.5-3.2c0.6-1,1.2-2.4,1.3-5.5l0.1-10.2l-9.2,4.5C-560.2,266.9-561.2,268-561.8,269z"/>
	<path class="st3" d="M-332.9,239c-1,1.6-1.4,3.6-1,5.4c0.4,1.9,1.5,3.5,3.2,4.5c1.2,0.7,2.5,1.1,3.9,1.1c0.5,0,1.1-0.1,1.6-0.2
		c1.9-0.4,3.5-1.5,4.5-3.2c0.6-1,1.2-2.4,1.3-5.5l0.1-10.2l-9.2,4.5C-331.3,236.9-332.3,238.1-332.9,239z"/>
	<path class="st3" d="M-531.2,269c-1,1.6-1.4,3.6-1,5.4c0.4,1.9,1.5,3.5,3.2,4.5c1.2,0.7,2.5,1.1,3.9,1.1c0.5,0,1.1-0.1,1.6-0.2
		c1.9-0.4,3.5-1.5,4.5-3.2c0.6-1,1.2-2.4,1.3-5.5l0.1-10.2l-9.2,4.5C-529.5,266.9-530.6,268-531.2,269z"/>
	<path class="st3" d="M-500.6,269c-1,1.6-1.4,3.6-1,5.4c0.4,1.9,1.5,3.5,3.2,4.5c1.2,0.7,2.5,1.1,3.9,1.1c0.5,0,1.1-0.1,1.6-0.2
		c1.9-0.4,3.5-1.5,4.5-3.2c0.6-1,1.2-2.4,1.3-5.5l0.1-10.2l-9.2,4.5C-498.9,266.9-499.9,268-500.6,269z"/>
	<path class="st3" d="M-394.1,239c-1,1.6-1.4,3.6-1,5.4c0.4,1.9,1.5,3.5,3.2,4.5c1.2,0.7,2.5,1.1,3.9,1.1c0.5,0,1.1-0.1,1.6-0.2
		c1.9-0.4,3.5-1.5,4.5-3.2c0.6-1,1.2-2.4,1.3-5.5l0.1-10.2l-9.2,4.5C-392.5,236.9-393.5,238.1-394.1,239z"/>
	<path class="st3" d="M-469.9,269c-1,1.6-1.4,3.6-1,5.4c0.4,1.9,1.5,3.5,3.2,4.5c1.2,0.7,2.5,1.1,3.9,1.1c0.5,0,1.1-0.1,1.6-0.2
		c1.9-0.4,3.5-1.5,4.5-3.2c0.6-1,1.2-2.4,1.3-5.5l0.1-10.2l-9.2,4.5C-468.3,266.9-469.3,268-469.9,269z"/>
	<path class="st3" d="M-439.3,269c-1,1.6-1.4,3.6-1,5.4c0.4,1.9,1.5,3.5,3.2,4.5c1.2,0.7,2.5,1.1,3.9,1.1c0.5,0,1.1-0.1,1.6-0.2
		c1.9-0.4,3.5-1.5,4.5-3.2c0.6-1,1.2-2.4,1.3-5.5l0.1-10.2l-9.2,4.5C-437.7,266.9-438.7,268-439.3,269z"/>
	<path class="st3" d="M-455.3,239c-1,1.6-1.4,3.6-1,5.4c0.4,1.9,1.5,3.5,3.2,4.5c1.2,0.7,2.5,1.1,3.9,1.1c0.5,0,1.1-0.1,1.6-0.2
		c1.9-0.4,3.5-1.5,4.5-3.2c0.6-1,1.2-2.4,1.3-5.5l0.1-10.2l-9.2,4.5C-453.7,236.9-454.7,238.1-455.3,239z"/>
	<path class="st3" d="M-408.7,269c-1,1.6-1.4,3.6-1,5.4c0.4,1.9,1.5,3.5,3.2,4.5c1.2,0.7,2.5,1.1,3.9,1.1c0.5,0,1.1-0.1,1.6-0.2
		c1.9-0.4,3.5-1.5,4.5-3.2c0.6-1,1.2-2.4,1.3-5.5l0.1-10.2l-9.2,4.5C-407.1,266.9-408.1,268-408.7,269z"/>
	<path class="st3" d="M-378.1,269c-1,1.6-1.4,3.6-1,5.4c0.4,1.9,1.5,3.5,3.2,4.5c1.2,0.7,2.5,1.1,3.9,1.1c0.5,0,1.1-0.1,1.6-0.2
		c1.9-0.4,3.5-1.5,4.5-3.2c0.6-1,1.2-2.4,1.3-5.5l0.1-10.2l-9.2,4.5C-376.5,266.9-377.5,268-378.1,269z"/>
	<path class="st3" d="M-516.6,239c-1,1.6-1.4,3.6-1,5.4c0.4,1.9,1.5,3.5,3.2,4.5c1.2,0.7,2.5,1.1,3.9,1.1c0.5,0,1.1-0.1,1.6-0.2
		c1.9-0.4,3.5-1.5,4.5-3.2c0.6-1,1.2-2.4,1.3-5.5l0.1-10.2l-9.2,4.5C-514.9,236.9-515.9,238.1-516.6,239z"/>
	<path class="st3" d="M-347.5,269c-1,1.6-1.4,3.6-1,5.4c0.4,1.9,1.5,3.5,3.2,4.5c1.2,0.7,2.5,1.1,3.9,1.1c0.5,0,1.1-0.1,1.6-0.2
		c1.9-0.4,3.5-1.5,4.5-3.2c0.6-1,1.2-2.4,1.3-5.5l0.1-10.2l-9.2,4.5C-345.9,266.9-346.9,268-347.5,269z"/>
	<path class="st3" d="M-284.8,269c-1,1.6-1.4,3.6-1,5.4c0.4,1.9,1.5,3.5,3.2,4.5c1.2,0.7,2.5,1.1,3.9,1.1c0.5,0,1.1-0.1,1.6-0.2
		c1.9-0.4,3.5-1.5,4.5-3.2c0.6-1,1.2-2.4,1.3-5.5l0.1-10.2l-9.2,4.5C-283.2,266.9-284.2,268-284.8,269z"/>
	<path class="st3" d="M-316.9,269c-1,1.6-1.4,3.6-1,5.4c0.4,1.9,1.5,3.5,3.2,4.5c1.2,0.7,2.5,1.1,3.9,1.1c0.5,0,1.1-0.1,1.6-0.2
		c1.9-0.4,3.5-1.5,4.5-3.2c0.6-1,1.2-2.4,1.3-5.5l0.1-10.2l-9.2,4.5C-315.3,266.9-316.3,268-316.9,269z"/>
	<path class="st3" d="M-577.8,239c-1,1.6-1.4,3.6-1,5.4c0.4,1.9,1.5,3.5,3.2,4.5c1.2,0.7,2.5,1.1,3.9,1.1c0.5,0,1.1-0.1,1.6-0.2
		c1.9-0.4,3.5-1.5,4.5-3.2c0.6-1,1.2-2.4,1.3-5.5l0.1-10.2l-9.2,4.5C-576.2,236.9-577.2,238.1-577.8,239z"/>
</g>
<path class="st6" d="M166.8,148.1c0,8.3-1.6,11.9-3.9,17.2c-2.9,6.7-6.6,14.9-6.6,30.5c0,15.5,3.7,23.8,6.6,30.5
	c2.4,5.4,3.9,8.9,3.9,17.2c0,8.3-1.6,11.9-3.9,17.2c-2.9,6.7-6.6,14.9-6.6,30.5c0,15.5,3.7,23.8,6.6,30.5c2.4,5.4,3.9,8.9,3.9,17.2
	c0,8.3-1.6,11.9-3.9,17.2c-2.9,6.7-6.6,14.9-6.6,30.5c0,15.5,3.7,23.8,6.6,30.5c2.4,5.4,3.9,8.9,3.9,17.2c0,6.6,3.5,11.9,7.9,11.9
	c4.4,0,7.9-5.3,7.9-11.9c0-15.5-3.7-23.8-6.6-30.5c-2.4-5.4-3.9-8.9-3.9-17.2c0-8.3,1.6-11.9,3.9-17.2c2.9-6.7,6.6-14.9,6.6-30.5
	c0-15.5-3.7-23.8-6.6-30.5c-2.4-5.4-3.9-8.9-3.9-17.2c0-8.3,1.6-11.9,3.9-17.2c2.9-6.7,6.6-14.9,6.6-30.5c0-15.5-3.7-23.8-6.6-30.5
	c-2.4-5.4-3.9-8.9-3.9-17.2c0-8.3,1.6-11.9,3.9-17.2c2.9-6.7,6.6-14.9,6.6-30.5c0-6.6-3.5-11.9-7.9-11.9
	C170.3,136.1,166.8,141.5,166.8,148.1z"/>
<path class="st6" d="M131.1,435.9c0-13.5-3.7-20.7-6.6-26.5c-2.4-4.7-3.9-7.7-3.9-15c0-7.2,1.6-10.3,3.9-15c2.9-5.8,6.6-13,6.6-26.5
	c0-13.5-3.7-20.7-6.6-26.5c-2.4-4.7-3.9-7.7-3.9-15c0-7.2,1.6-10.3,3.9-15c2.9-5.8,6.6-13,6.6-26.5c0-13.5-3.7-20.7-6.6-26.5
	c-2.4-4.7-3.9-7.7-3.9-15c0-7.2,1.6-10.3,3.9-15c2.9-5.8,6.6-13,6.6-26.5c0-5.7-3.5-10.4-7.9-10.4c-4.4,0-7.9,4.6-7.9,10.4
	c0,7.2-1.6,10.3-3.9,15c-2.9,5.8-6.6,13-6.6,26.5c0,13.5,3.7,20.7,6.6,26.5c2.4,4.7,3.9,7.7,3.9,15c0,7.2-1.6,10.3-3.9,15
	c-2.9,5.8-6.6,13-6.6,26.5c0,13.5,3.7,20.7,6.6,26.5c2.4,4.7,3.9,7.7,3.9,15c0,7.2-1.6,10.3-3.9,15c-2.9,5.8-6.6,13-6.6,26.5
	c0,13.5,3.7,20.7,6.6,26.5c2.4,4.7,3.9,7.7,3.9,15c0,5.7,3.5,10.4,7.9,10.4C127.6,446.2,131.1,441.6,131.1,435.9z"/>
<path class="st6" d="M79.7,437c0-12.1-3.7-18.5-6.6-23.7c-2.4-4.2-3.9-6.9-3.9-13.4c0-6.5,1.6-9.2,3.9-13.4
	c2.9-5.2,6.6-11.6,6.6-23.7c0-12.1-3.7-18.5-6.6-23.7c-2.4-4.2-3.9-6.9-3.9-13.4c0-6.5,1.6-9.2,3.9-13.4c2.9-5.2,6.6-11.6,6.6-23.7
	c0-12.1-3.7-18.5-6.6-23.7c-2.4-4.2-3.9-6.9-3.9-13.4s1.6-9.2,3.9-13.4c2.9-5.2,6.6-11.6,6.6-23.7c0-5.1-3.5-9.3-7.9-9.3
	c-4.4,0-7.9,4.2-7.9,9.3c0,6.5-1.6,9.2-3.9,13.4c-2.9,5.2-6.6,11.6-6.6,23.7c0,12.1,3.7,18.5,6.6,23.7c2.4,4.2,3.9,6.9,3.9,13.4
	c0,6.5-1.6,9.2-3.9,13.4c-2.9,5.2-6.6,11.6-6.6,23.7c0,12.1,3.7,18.5,6.6,23.7c2.4,4.2,3.9,6.9,3.9,13.4c0,6.5-1.6,9.2-3.9,13.4
	c-2.9,5.2-6.6,11.6-6.6,23.7c0,12.1,3.7,18.5,6.6,23.7c2.4,4.2,3.9,6.9,3.9,13.4c0,5.1,3.5,9.3,7.9,9.3
	C76.2,446.2,79.7,442.1,79.7,437z"/>
<path class="st6" d="M321,148.1c0,8.3-1.6,11.9-3.9,17.2c-2.9,6.7-6.6,14.9-6.6,30.5c0,15.5,3.7,23.8,6.6,30.5
	c2.4,5.4,3.9,8.9,3.9,17.2c0,8.3-1.6,11.9-3.9,17.2c-2.9,6.7-6.6,14.9-6.6,30.5c0,15.5,3.7,23.8,6.6,30.5c2.4,5.4,3.9,8.9,3.9,17.2
	c0,8.3-1.6,11.9-3.9,17.2c-2.9,6.7-6.6,14.9-6.6,30.5c0,15.5,3.7,23.8,6.6,30.5c2.4,5.4,3.9,8.9,3.9,17.2c0,6.6,3.5,11.9,7.9,11.9
	c4.4,0,7.9-5.3,7.9-11.9c0-15.5-3.7-23.8-6.6-30.5c-2.4-5.4-3.9-8.9-3.9-17.2c0-8.3,1.6-11.9,3.9-17.2c2.9-6.7,6.6-14.9,6.6-30.5
	c0-15.5-3.7-23.8-6.6-30.5c-2.4-5.4-3.9-8.9-3.9-17.2c0-8.3,1.6-11.9,3.9-17.2c2.9-6.7,6.6-14.9,6.6-30.5c0-15.5-3.7-23.8-6.6-30.5
	c-2.4-5.4-3.9-8.9-3.9-17.2c0-8.3,1.6-11.9,3.9-17.2c2.9-6.7,6.6-14.9,6.6-30.5c0-6.6-3.5-11.9-7.9-11.9S321,141.5,321,148.1z"/>
<path class="st6" d="M285.4,433.4c0-16.7-3.7-25.6-6.6-32.8c-2.4-5.8-3.9-9.6-3.9-18.5c0-8.9,1.6-12.8,3.9-18.5
	c2.9-7.2,6.6-16.1,6.6-32.8c0-16.7-3.7-25.6-6.6-32.8c-2.4-5.8-3.9-9.6-3.9-18.5c0-8.9,1.6-12.8,3.9-18.5c2.9-7.2,6.6-16.1,6.6-32.8
	c0-16.7-3.7-25.6-6.6-32.8c-2.4-5.8-3.9-9.6-3.9-18.5c0-8.9,1.6-12.8,3.9-18.5c2.9-7.2,6.6-16.1,6.6-32.8c0-7.1-3.5-12.8-7.9-12.8
	c-4.4,0-7.9,5.7-7.9,12.8c0,8.9-1.6,12.8-3.9,18.5c-2.9,7.2-6.6,16.1-6.6,32.8c0,16.7,3.7,25.6,6.6,32.8c2.4,5.8,3.9,9.6,3.9,18.5
	c0,8.9-1.6,12.8-3.9,18.5c-2.9,7.2-6.6,16.1-6.6,32.8c0,16.7,3.7,25.6,6.6,32.8c2.4,5.8,3.9,9.6,3.9,18.5c0,8.9-1.6,12.8-3.9,18.5
	c-2.9,7.2-6.6,16.1-6.6,32.8c0,16.7,3.7,25.6,6.6,32.8c2.4,5.8,3.9,9.6,3.9,18.5c0,7.1,3.5,12.8,7.9,12.8
	C281.9,446.2,285.4,440.5,285.4,433.4z"/>
<path class="st6" d="M234,433.4c0-16.7-3.7-25.6-6.6-32.8c-2.4-5.8-3.9-9.6-3.9-18.5c0-8.9,1.6-12.8,3.9-18.5
	c2.9-7.2,6.6-16.1,6.6-32.8c0-16.7-3.7-25.6-6.6-32.8c-2.4-5.8-3.9-9.6-3.9-18.5c0-8.9,1.6-12.8,3.9-18.5c2.9-7.2,6.6-16.1,6.6-32.8
	c0-16.7-3.7-25.6-6.6-32.8c-2.4-5.8-3.9-9.6-3.9-18.5c0-8.9,1.6-12.8,3.9-18.5c2.9-7.2,6.6-16.1,6.6-32.8c0-7.1-3.5-12.8-7.9-12.8
	c-4.4,0-7.9,5.7-7.9,12.8c0,8.9-1.6,12.8-3.9,18.5c-2.9,7.2-6.6,16.1-6.6,32.8c0,16.7,3.7,25.6,6.6,32.8c2.4,5.8,3.9,9.6,3.9,18.5
	c0,8.9-1.6,12.8-3.9,18.5c-2.9,7.2-6.6,16.1-6.6,32.8c0,16.7,3.7,25.6,6.6,32.8c2.4,5.8,3.9,9.6,3.9,18.5c0,8.9-1.6,12.8-3.9,18.5
	c-2.9,7.2-6.6,16.1-6.6,32.8c0,16.7,3.7,25.6,6.6,32.8c2.4,5.8,3.9,9.6,3.9,18.5c0,7.1,3.5,12.8,7.9,12.8
	C230.5,446.2,234,440.5,234,433.4z"/>
<path class="st6" d="M439.7,437c0-12.1-3.7-18.5-6.6-23.7c-2.4-4.2-3.9-6.9-3.9-13.4c0-6.5,1.6-9.2,3.9-13.4
	c2.9-5.2,6.6-11.6,6.6-23.7c0-12.1-3.7-18.5-6.6-23.7c-2.4-4.2-3.9-6.9-3.9-13.4c0-6.5,1.6-9.2,3.9-13.4c2.9-5.2,6.6-11.6,6.6-23.7
	c0-12.1-3.7-18.5-6.6-23.7c-2.4-4.2-3.9-6.9-3.9-13.4s1.6-9.2,3.9-13.4c2.9-5.2,6.6-11.6,6.6-23.7c0-5.1-3.5-9.3-7.9-9.3
	c-4.4,0-7.9,4.2-7.9,9.3c0,6.5-1.6,9.2-3.9,13.4c-2.9,5.2-6.6,11.6-6.6,23.7c0,12.1,3.7,18.5,6.6,23.7c2.4,4.2,3.9,6.9,3.9,13.4
	c0,6.5-1.6,9.2-3.9,13.4c-2.9,5.2-6.6,11.6-6.6,23.7c0,12.1,3.7,18.5,6.6,23.7c2.4,4.2,3.9,6.9,3.9,13.4c0,6.5-1.6,9.2-3.9,13.4
	c-2.9,5.2-6.6,11.6-6.6,23.7c0,12.1,3.7,18.5,6.6,23.7c2.4,4.2,3.9,6.9,3.9,13.4c0,5.1,3.5,9.3,7.9,9.3
	C436.2,446.2,439.7,442.1,439.7,437z"/>
<path class="st6" d="M388.3,435.9c0-13.5-3.7-20.7-6.6-26.5c-2.4-4.7-3.9-7.7-3.9-15c0-7.2,1.6-10.3,3.9-15c2.9-5.8,6.6-13,6.6-26.5
	c0-13.5-3.7-20.7-6.6-26.5c-2.4-4.7-3.9-7.7-3.9-15c0-7.2,1.6-10.3,3.9-15c2.9-5.8,6.6-13,6.6-26.5c0-13.5-3.7-20.7-6.6-26.5
	c-2.4-4.7-3.9-7.7-3.9-15c0-7.2,1.6-10.3,3.9-15c2.9-5.8,6.6-13,6.6-26.5c0-5.7-3.5-10.4-7.9-10.4c-4.4,0-7.9,4.6-7.9,10.4
	c0,7.2-1.6,10.3-3.9,15c-2.9,5.8-6.6,13-6.6,26.5c0,13.5,3.7,20.7,6.6,26.5c2.4,4.7,3.9,7.7,3.9,15c0,7.2-1.6,10.3-3.9,15
	c-2.9,5.8-6.6,13-6.6,26.5c0,13.5,3.7,20.7,6.6,26.5c2.4,4.7,3.9,7.7,3.9,15c0,7.2-1.6,10.3-3.9,15c-2.9,5.8-6.6,13-6.6,26.5
	c0,13.5,3.7,20.7,6.6,26.5c2.4,4.7,3.9,7.7,3.9,15c0,5.7,3.5,10.4,7.9,10.4C384.7,446.2,388.3,441.6,388.3,435.9z"/>
</svg>
