<?xml version="1.0" encoding="utf-8"?>
<!-- Generator: Adobe Illustrator 25.2.0, SVG Export Plug-In . SVG Version: 6.00 Build 0)  -->
<svg version="1.1" id="圖層_1" xmlns="http://www.w3.org/2000/svg" xmlns:xlink="http://www.w3.org/1999/xlink" x="0px" y="0px"
	 viewBox="0 0 512 512" style="enable-background:new 0 0 512 512;" xml:space="preserve">
<style type="text/css">
	.st0{fill:#ADEBF3;}
	.st1{fill:#98E5F0;}
	.st2{fill:#84E0ED;}
	.st3{fill:#EAFAFC;}
</style>
<g id="surface1">
	<path class="st0" d="M261.7,130.4c-3.1-3.1-8.2-3.1-11.3,0c-6,6-146.3,147.8-146.3,229.6c0,83.8,68.2,152,152,152s152-68.2,152-152
		C408,278.1,267.6,136.3,261.7,130.4z"/>
	<path class="st1" d="M288,496c-83.8,0-152-68.2-152-152c0-65.3,89.2-168.6,128.4-210.9c-1.4-1.4-2.4-2.4-2.7-2.8
		c-3.1-3.1-8.2-3.1-11.3,0c-6,6-146.3,147.8-146.3,229.6c0,83.8,68.2,152,152,152c30.7,0,59.3-9.2,83.3-24.9
		C323.3,492.9,306,496,288,496z"/>
	<path class="st1" d="M430.2,37.7c-16.1-19.8-32-34.9-32.7-35.5c-3.1-2.9-7.9-2.9-11,0c-0.7,0.6-16.6,15.7-32.7,35.5
		C331.4,65.1,320,87.4,320,104c0,39.7,32.3,72,72,72c39.7,0,72-32.3,72-72C464,87.4,452.6,65.1,430.2,37.7z"/>
	<path class="st2" d="M416,160c-39.7,0-72-32.3-72-72c0-16.6,11.4-38.9,33.8-66.3c6.4-7.8,12.7-14.9,18.1-20.7
		c-3-1.7-6.8-1.3-9.4,1.2c-0.7,0.6-16.6,15.7-32.7,35.5C331.4,65.1,320,87.4,320,104c0,39.7,32.3,72,72,72c19.9,0,38-8.2,51.1-21.3
		C434.7,158.1,425.6,160,416,160z"/>
	<path class="st1" d="M125.5,2.2c-3.1-2.9-7.9-2.9-11,0c-0.7,0.6-16.6,15.7-32.7,35.5C59.4,65.1,48,87.4,48,104
		c0,39.7,32.3,72,72,72c39.7,0,72-32.3,72-72c0-16.6-11.4-38.9-33.8-66.3C142.1,17.9,126.2,2.8,125.5,2.2z"/>
	<path class="st2" d="M144,160c-39.7,0-72-32.3-72-72c0-16.6,11.4-38.9,33.8-66.3c6.4-7.8,12.7-14.9,18.1-20.7
		c-3-1.7-6.8-1.3-9.4,1.2c-0.7,0.6-16.6,15.7-32.7,35.5C59.4,65.1,48,87.4,48,104c0,39.7,32.3,72,72,72c19.9,0,38-8.2,51.1-21.3
		C162.7,158.1,153.6,160,144,160z"/>
	<path class="st3" d="M208,408c-2,0-4.1-0.8-5.7-2.3c-3.1-3.1-3.1-8.2,0-11.3l96-96c3.1-3.1,8.2-3.1,11.3,0c3.1,3.1,3.1,8.2,0,11.3
		l-96,96C212.1,407.2,210,408,208,408z"/>
	<path class="st3" d="M304,384c0,8.8-7.2,16-16,16s-16-7.2-16-16s7.2-16,16-16S304,375.2,304,384z"/>
	<path class="st3" d="M240,320c0,8.8-7.2,16-16,16s-16-7.2-16-16s7.2-16,16-16S240,311.2,240,320z"/>
</g>
</svg>
