<?xml version="1.0" encoding="utf-8"?>
<!-- Generator: Adobe Illustrator 25.2.0, SVG Export Plug-In . SVG Version: 6.00 Build 0)  -->
<svg version="1.1" id="Capa_1" xmlns="http://www.w3.org/2000/svg" xmlns:xlink="http://www.w3.org/1999/xlink" x="0px" y="0px"
	 viewBox="0 0 480 480" style="enable-background:new 0 0 480 480;" xml:space="preserve">
<path d="M1158.4-385.2c-132.5,0-240,107.5-240,240s107.5,240,240,240s240-107.5,240-240C1398.3-277.7,1290.9-385,1158.4-385.2z
	 M1158.4,78.8c-123.7,0-224-100.3-224-224s100.3-224,224-224s224,100.3,224,224C1382.3-21.5,1282.1,78.7,1158.4,78.8z"/>
<path d="M1158.4-361.2c-119.3,0-216,96.7-216,216s96.7,216,216,216c119.3,0,216-96.7,216-216C1374.3-264.4,1277.6-361,1158.4-361.2z
	 M1158.4,54.8c-110.5,0-200-89.5-200-200s89.5-200,200-200c110.5,0,200,89.5,200,200C1358.3-34.8,1268.8,54.7,1158.4,54.8z"/>
<g>
	<polygon points="196,78.8 166.7,78.8 166.7,108.1 137.4,108.1 137.4,196 166.7,196 166.7,401.2 196,401.2 196,196 225.3,196 
		225.3,108.1 196,108.1 	"/>
	<polygon points="78.8,78.8 49.5,78.8 49.5,196 20.2,196 20.2,284 49.5,284 49.5,401.2 78.8,401.2 78.8,284 108.1,284 108.1,196 
		78.8,196 	"/>
	<polygon points="430.5,78.8 401.2,78.8 401.2,166.7 371.9,166.7 371.9,254.7 401.2,254.7 401.2,401.2 430.5,401.2 430.5,254.7 
		459.8,254.7 459.8,166.7 430.5,166.7 	"/>
	<polygon points="313.3,78.8 284,78.8 284,284 254.7,284 254.7,371.9 284,371.9 284,401.2 313.3,401.2 313.3,371.9 342.6,371.9 
		342.6,284 313.3,284 	"/>
</g>
</svg>
