<?xml version="1.0" encoding="utf-8"?>
<!-- Generator: Adobe Illustrator 25.2.0, SVG Export Plug-In . SVG Version: 6.00 Build 0)  -->
<svg version="1.1" id="Capa_1" xmlns="http://www.w3.org/2000/svg" xmlns:xlink="http://www.w3.org/1999/xlink" x="0px" y="0px"
	 viewBox="0 0 512 512" style="enable-background:new 0 0 512 512;" xml:space="preserve">
<style type="text/css">
	.st0{fill:#AFE2F7;}
	.st1{fill:#E2F4FF;}
	.st2{fill:#8FD6F7;}
	.st3{fill:#D1ECF9;}
	.st4{fill:#407093;}
</style>
<g>
	<g>
		<g>
			<g>
				<path class="st0" d="M391.3,512c32.4,0,58.7-26.3,58.7-58.7V58.7C450,26.3,423.7,0,391.3,0H74.4C33.4,0,0,33.4,0,74.4v363.2
					c0,41,33.4,74.4,74.4,74.4h363.2h0H391.3z"/>
				<path class="st1" d="M446.1,474.3c2.5-6.5,3.9-13.6,3.9-21V58.7c0-7.4-1.4-14.5-3.9-21c-2.7-0.6-5.6-1-8.5-1H74.4
					c-20.8,0-37.7,16.9-37.7,37.7v363.2c0,20.8,16.9,37.7,37.7,37.7h363.2C440.5,475.3,443.4,475,446.1,474.3z"/>
				<path class="st2" d="M437.6,0H386c32.4,0,58.7,26.3,58.7,58.7v394.6c0,32.4-26.3,58.7-58.7,58.7h51.6c41,0,74.4-33.4,74.4-74.4
					V74.4C512,33.4,478.6,0,437.6,0L437.6,0z"/>
				<path class="st3" d="M440.5,36.8c2.7,6.8,4.2,14.2,4.2,21.9v394.6c0,7.7-1.5,15.1-4.2,21.9c19.5-1.5,34.9-17.7,34.9-37.6V74.4
					C475.3,54.6,460,38.3,440.5,36.8L440.5,36.8z"/>
				<g>
					<g>
						<g>
							<g>
								<g>
									<circle class="st4" cx="256.1" cy="258.1" r="182.4"/>
									<g>
										<g>
											<path class="st0" d="M322.2,378.7c-10.8,0-20.7-3.1-29.3-9.1c-8.4-5.9-7.1-14.2-5.6-23.9c5.2-33.7-2.5-49.9-20.3-67.7
												c-8.1-8.1-11.1-11.6-6-18.9c21.5-30.4,85.7-27.5,114.8-6.9c28.3,20,27.8,62.4,6.5,92.5
												C367.8,365.4,344.2,378.7,322.2,378.7C322.2,378.7,322.2,378.7,322.2,378.7L322.2,378.7z"/>
											<path class="st0" d="M122.2,324c-14.9-32.5-8.8-75,23.3-89.8c9.4-4.3,15.9,1,23.5,7.2c27.3,22,45.3,22.6,68.7,16.4
												c5.1-1.4,8.3-2.1,10.8-2.1c5.2,0,7.1,3.3,8.5,6.3c16.1,35-20.7,88.6-51.5,102.8C174.7,378.9,137.8,358.2,122.2,324z"/>
											<g>
												<path class="st0" d="M256.3,254.7c-10.2,0-30.4-4.2-50.6-32.4c-12.9-18.1-21.3-40.6-21.3-57.3
													c0-32.4,32.2-58.7,71.8-58.7c34.5,0,71.8,22.4,71.8,58.7c0,10.2-7.6,14-16.3,18.3c-30.6,15.2-39.3,30.8-43.6,55.6
													C266.3,250.2,265.2,254.7,256.3,254.7z"/>
											</g>
										</g>
										<circle class="st1" cx="256.1" cy="255.6" r="36.6"/>
									</g>
								</g>
							</g>
						</g>
					</g>
				</g>
			</g>
			<circle class="st4" cx="422" cy="428.6" r="22.7"/>
		</g>
	</g>
</g>
</svg>
